<svg width="75" height="97" viewBox="0 0 75 97" fill="none" xmlns="http://www.w3.org/2000/svg">
<mask id="path-1-outside-1_301_1621" maskUnits="userSpaceOnUse" x="0" y="0" width="75" height="97" fill="black">
<rect fill="white" width="75" height="97"/>
<path d="M73.3537 29.5447C73.2827 29.4162 73.1868 29.3031 73.0717 29.2121C72.9565 29.121 72.8244 29.0538 72.683 29.0143C69.4906 28.1213 65.7431 28.6693 62.4017 30.5179C60.394 31.6099 58.6613 33.1449 57.3352 35.0063L57.3086 34.8863C56.2942 30.3092 56.2942 28.5799 57.3086 24.0028L58.0689 20.5718C58.1047 20.41 58.1038 20.2421 58.0662 20.0807C58.0285 19.9192 57.9551 19.7683 57.8513 19.639C57.7475 19.5097 57.6161 19.4054 57.4666 19.3337C57.3171 19.262 57.1535 19.2248 56.9877 19.2248H43.2064C43.0406 19.2248 42.877 19.262 42.7275 19.3337C42.578 19.4054 42.4465 19.5097 42.3428 19.639C42.239 19.7683 42.1656 19.9192 42.1279 20.0807C42.0902 20.2421 42.0893 20.41 42.1252 20.5718L42.8855 24.0028C43.8997 28.5799 43.8997 30.3092 42.8855 34.8863L42.1252 38.3174C42.1212 38.3353 42.1195 38.3534 42.1164 38.3715C42.1129 38.3921 42.1086 38.4126 42.1063 38.4334C42.1039 38.4542 42.1036 38.4747 42.1024 38.4953C42.1013 38.516 42.0994 38.5364 42.0994 38.557C42.0994 38.5777 42.1013 38.5982 42.1024 38.6188C42.1036 38.6393 42.104 38.66 42.1063 38.6807C42.1086 38.7013 42.1129 38.722 42.1164 38.7426C42.1195 38.7606 42.1213 38.7787 42.1252 38.7967L42.8855 42.2277C43.8999 46.8049 43.8999 48.534 42.8855 53.1111L42.3175 55.6743H32.4361L31.8681 53.1111C30.8535 48.534 30.8535 46.8049 31.8681 42.2277L32.6284 38.7967C32.6323 38.7788 32.6341 38.7607 32.6371 38.7426C32.6407 38.722 32.6449 38.7015 32.6473 38.6807C32.6496 38.6598 32.65 38.6394 32.6511 38.6188C32.6522 38.5981 32.6541 38.5777 32.6541 38.557C32.6541 38.5364 32.6523 38.5159 32.6511 38.4953C32.65 38.4747 32.6496 38.454 32.6473 38.4334C32.6449 38.4128 32.6407 38.3921 32.6371 38.3715C32.6341 38.3535 32.6322 38.3354 32.6284 38.3174L31.8681 34.8863C30.8537 30.3092 30.8537 28.5799 31.8681 24.0028L32.6284 20.5718C32.6323 20.5539 32.6341 20.5358 32.6371 20.5177C32.6407 20.497 32.6449 20.4766 32.6473 20.4558C32.6496 20.435 32.65 20.4145 32.6511 20.3939C32.6522 20.3732 32.6541 20.3528 32.6541 20.3321C32.6541 20.3115 32.6523 20.291 32.6511 20.2704C32.65 20.2498 32.6496 20.2292 32.6473 20.2085C32.6449 20.1879 32.6407 20.1672 32.6371 20.1466C32.6341 20.1286 32.6322 20.1105 32.6284 20.0924L31.8681 16.6615C30.8535 12.0843 30.8535 10.3552 31.8681 5.77803L32.6284 2.34702C32.6642 2.18516 32.6633 2.01732 32.6256 1.85587C32.588 1.69442 32.5146 1.54349 32.4108 1.41421C32.307 1.28492 32.1755 1.18059 32.026 1.1089C31.8766 1.03721 31.7129 0.999993 31.5471 1H17.7659C17.6001 0.999997 17.4364 1.03721 17.2869 1.1089C17.1375 1.18059 17.006 1.28493 16.9022 1.41421C16.7984 1.5435 16.725 1.69443 16.6874 1.85588C16.6497 2.01732 16.6488 2.18516 16.6847 2.34702L17.4449 5.77803C18.4593 10.3552 18.4593 12.0843 17.4449 16.6615L17.4025 16.8531C16.055 14.8241 14.2312 13.1559 12.0904 11.9942C8.74904 10.1456 5.0015 9.59775 1.80914 10.4907C1.66775 10.5302 1.53563 10.5974 1.42047 10.6885C1.30531 10.7796 1.2094 10.8926 1.13834 11.0211C1.06728 11.1496 1.02248 11.2909 1.00654 11.4368C0.990606 11.5828 1.00385 11.7305 1.04551 11.8712C1.98579 15.0502 4.44143 17.9332 7.7828 19.7815C9.96089 21.0123 12.4143 21.6736 14.9159 21.7043C15.5802 21.7031 16.2433 21.647 16.8984 21.5366L17.4449 24.0028C18.4592 28.5799 18.4592 30.3092 17.4449 34.8863L16.6846 38.3173C16.6806 38.3353 16.6789 38.3533 16.6758 38.3715C16.6723 38.3921 16.668 38.4125 16.6657 38.4334C16.6634 38.4542 16.663 38.4746 16.6618 38.4953C16.6607 38.5159 16.6588 38.5363 16.6588 38.557C16.6588 38.5777 16.6607 38.5981 16.6618 38.6187C16.663 38.6393 16.6634 38.66 16.6657 38.6806C16.668 38.7013 16.6723 38.7219 16.6758 38.7425C16.6789 38.7606 16.6807 38.7787 16.6846 38.7967L17.4449 42.2277C18.4593 46.8048 18.4593 48.5339 17.4449 53.1111L16.7616 56.1946C11.0095 60.2538 7.84912 65.6284 7.84912 71.3827C7.84912 77.3884 11.2738 82.9602 17.4921 87.0718C17.9318 87.3571 18.25 87.7955 18.3851 88.3019C18.5201 88.8084 18.4622 89.347 18.2228 89.8133L16.1937 93.7161C16.106 93.8849 16.0632 94.0735 16.0695 94.2636C16.0758 94.4537 16.131 94.6391 16.2297 94.8017C16.3284 94.9643 16.4674 95.0987 16.6332 95.192C16.799 95.2853 16.9861 95.3343 17.1763 95.3343H57.7581C57.9484 95.3343 58.1354 95.2853 58.3012 95.192C58.467 95.0987 58.606 94.9643 58.7047 94.8017C58.8035 94.6391 58.8587 94.4537 58.865 94.2636C58.8713 94.0735 58.8285 93.8849 58.7407 93.7161L56.7118 89.8133C56.4723 89.347 56.4144 88.8084 56.5494 88.3019C56.6844 87.7954 57.0027 87.3571 57.4425 87.0718C63.6608 82.9601 67.0853 77.3881 67.0853 71.3826C67.0853 65.5576 63.846 60.1224 57.9591 56.0463L57.3086 53.1109C56.2941 48.5338 56.2941 46.8046 57.3086 42.2275L57.7818 40.0918C58.3759 40.1816 58.9757 40.2271 59.5765 40.228C62.078 40.1971 64.5313 39.5358 66.7093 38.3051C70.0508 36.4568 72.5065 33.5736 73.4467 30.3948C73.4884 30.254 73.5016 30.1063 73.4856 29.9604C73.4696 29.8145 73.4248 29.6731 73.3537 29.5447ZM45.048 23.5236L44.5862 21.4396H55.6081L55.1463 23.5236C54.0671 28.3932 54.0671 30.4959 55.1463 35.3656L55.6081 37.4496H44.5861L45.0479 35.3656C46.127 30.4959 46.1271 28.3932 45.048 23.5236ZM45.048 41.7483L44.5862 39.6643H55.6081L55.1463 41.7483C54.0671 46.6178 54.0671 48.7207 55.1463 53.5901L55.6081 55.6741H44.5861L45.0479 53.5901C46.127 48.7207 46.1271 46.6178 45.048 41.7483ZM19.6075 41.7483L19.1457 39.6643H30.1675L29.7057 41.7483C28.6266 46.6178 28.6266 48.7207 29.7057 53.5901L30.1675 55.6741H19.1456L19.6074 53.5901C20.6865 48.7207 20.6866 46.6178 19.6075 41.7483ZM19.6075 23.5236L19.1457 21.4396H30.1675L29.7057 23.5236C28.6266 28.3932 28.6266 30.4959 29.7057 35.3656L30.1675 37.4496H19.1456L19.6074 35.3656C20.6865 30.4959 20.6866 28.3932 19.6075 23.5236ZM19.6075 5.29894L19.1457 3.21494H30.1675L29.7057 5.29894C28.6266 10.1684 28.6266 12.2713 29.7057 17.1407L30.1675 19.2247H19.1456L19.6074 17.1407C20.6865 12.2713 20.6866 10.1684 19.6075 5.29894ZM8.85505 17.8433C6.43295 16.5036 4.5681 14.5536 3.59111 12.3778C5.95292 12.0481 8.59614 12.5925 11.0184 13.9323C13.4405 15.2719 15.3053 17.2221 16.2823 19.398C13.9198 19.7269 11.277 19.1832 8.85505 17.8433ZM64.8705 71.3827C64.8705 76.6203 61.7986 81.5361 56.2209 85.2244C55.3237 85.8107 54.6762 86.7093 54.4038 87.7459C54.1314 88.7825 54.2536 89.8833 54.7466 90.835L55.9343 93.1195H19.0003L20.188 90.835C20.681 89.8834 20.8031 88.7825 20.5308 87.746C20.2584 86.7094 19.6109 85.8108 18.7137 85.2245C13.1359 81.5362 10.064 76.6204 10.064 71.3828C10.064 66.3177 12.9506 61.5366 18.2016 57.8891H56.7329C61.9839 61.5365 64.8705 66.3176 64.8705 71.3827ZM65.6372 36.3672C63.215 37.7069 60.5722 38.2512 58.21 37.9216C59.1868 35.7457 61.0517 33.7957 63.4739 32.4559C65.8961 31.116 68.5387 30.572 70.9012 30.9014C69.9243 33.0772 68.0594 35.0273 65.6372 36.3672Z"/>
</mask>
<path d="M73.3537 29.5447C73.2827 29.4162 73.1868 29.3031 73.0717 29.2121C72.9565 29.121 72.8244 29.0538 72.683 29.0143C69.4906 28.1213 65.7431 28.6693 62.4017 30.5179C60.394 31.6099 58.6613 33.1449 57.3352 35.0063L57.3086 34.8863C56.2942 30.3092 56.2942 28.5799 57.3086 24.0028L58.0689 20.5718C58.1047 20.41 58.1038 20.2421 58.0662 20.0807C58.0285 19.9192 57.9551 19.7683 57.8513 19.639C57.7475 19.5097 57.6161 19.4054 57.4666 19.3337C57.3171 19.262 57.1535 19.2248 56.9877 19.2248H43.2064C43.0406 19.2248 42.877 19.262 42.7275 19.3337C42.578 19.4054 42.4465 19.5097 42.3428 19.639C42.239 19.7683 42.1656 19.9192 42.1279 20.0807C42.0902 20.2421 42.0893 20.41 42.1252 20.5718L42.8855 24.0028C43.8997 28.5799 43.8997 30.3092 42.8855 34.8863L42.1252 38.3174C42.1212 38.3353 42.1195 38.3534 42.1164 38.3715C42.1129 38.3921 42.1086 38.4126 42.1063 38.4334C42.1039 38.4542 42.1036 38.4747 42.1024 38.4953C42.1013 38.516 42.0994 38.5364 42.0994 38.557C42.0994 38.5777 42.1013 38.5982 42.1024 38.6188C42.1036 38.6393 42.104 38.66 42.1063 38.6807C42.1086 38.7013 42.1129 38.722 42.1164 38.7426C42.1195 38.7606 42.1213 38.7787 42.1252 38.7967L42.8855 42.2277C43.8999 46.8049 43.8999 48.534 42.8855 53.1111L42.3175 55.6743H32.4361L31.8681 53.1111C30.8535 48.534 30.8535 46.8049 31.8681 42.2277L32.6284 38.7967C32.6323 38.7788 32.6341 38.7607 32.6371 38.7426C32.6407 38.722 32.6449 38.7015 32.6473 38.6807C32.6496 38.6598 32.65 38.6394 32.6511 38.6188C32.6522 38.5981 32.6541 38.5777 32.6541 38.557C32.6541 38.5364 32.6523 38.5159 32.6511 38.4953C32.65 38.4747 32.6496 38.454 32.6473 38.4334C32.6449 38.4128 32.6407 38.3921 32.6371 38.3715C32.6341 38.3535 32.6322 38.3354 32.6284 38.3174L31.8681 34.8863C30.8537 30.3092 30.8537 28.5799 31.8681 24.0028L32.6284 20.5718C32.6323 20.5539 32.6341 20.5358 32.6371 20.5177C32.6407 20.497 32.6449 20.4766 32.6473 20.4558C32.6496 20.435 32.65 20.4145 32.6511 20.3939C32.6522 20.3732 32.6541 20.3528 32.6541 20.3321C32.6541 20.3115 32.6523 20.291 32.6511 20.2704C32.65 20.2498 32.6496 20.2292 32.6473 20.2085C32.6449 20.1879 32.6407 20.1672 32.6371 20.1466C32.6341 20.1286 32.6322 20.1105 32.6284 20.0924L31.8681 16.6615C30.8535 12.0843 30.8535 10.3552 31.8681 5.77803L32.6284 2.34702C32.6642 2.18516 32.6633 2.01732 32.6256 1.85587C32.588 1.69442 32.5146 1.54349 32.4108 1.41421C32.307 1.28492 32.1755 1.18059 32.026 1.1089C31.8766 1.03721 31.7129 0.999993 31.5471 1H17.7659C17.6001 0.999997 17.4364 1.03721 17.2869 1.1089C17.1375 1.18059 17.006 1.28493 16.9022 1.41421C16.7984 1.5435 16.725 1.69443 16.6874 1.85588C16.6497 2.01732 16.6488 2.18516 16.6847 2.34702L17.4449 5.77803C18.4593 10.3552 18.4593 12.0843 17.4449 16.6615L17.4025 16.8531C16.055 14.8241 14.2312 13.1559 12.0904 11.9942C8.74904 10.1456 5.0015 9.59775 1.80914 10.4907C1.66775 10.5302 1.53563 10.5974 1.42047 10.6885C1.30531 10.7796 1.2094 10.8926 1.13834 11.0211C1.06728 11.1496 1.02248 11.2909 1.00654 11.4368C0.990606 11.5828 1.00385 11.7305 1.04551 11.8712C1.98579 15.0502 4.44143 17.9332 7.7828 19.7815C9.96089 21.0123 12.4143 21.6736 14.9159 21.7043C15.5802 21.7031 16.2433 21.647 16.8984 21.5366L17.4449 24.0028C18.4592 28.5799 18.4592 30.3092 17.4449 34.8863L16.6846 38.3173C16.6806 38.3353 16.6789 38.3533 16.6758 38.3715C16.6723 38.3921 16.668 38.4125 16.6657 38.4334C16.6634 38.4542 16.663 38.4746 16.6618 38.4953C16.6607 38.5159 16.6588 38.5363 16.6588 38.557C16.6588 38.5777 16.6607 38.5981 16.6618 38.6187C16.663 38.6393 16.6634 38.66 16.6657 38.6806C16.668 38.7013 16.6723 38.7219 16.6758 38.7425C16.6789 38.7606 16.6807 38.7787 16.6846 38.7967L17.4449 42.2277C18.4593 46.8048 18.4593 48.5339 17.4449 53.1111L16.7616 56.1946C11.0095 60.2538 7.84912 65.6284 7.84912 71.3827C7.84912 77.3884 11.2738 82.9602 17.4921 87.0718C17.9318 87.3571 18.25 87.7955 18.3851 88.3019C18.5201 88.8084 18.4622 89.347 18.2228 89.8133L16.1937 93.7161C16.106 93.8849 16.0632 94.0735 16.0695 94.2636C16.0758 94.4537 16.131 94.6391 16.2297 94.8017C16.3284 94.9643 16.4674 95.0987 16.6332 95.192C16.799 95.2853 16.9861 95.3343 17.1763 95.3343H57.7581C57.9484 95.3343 58.1354 95.2853 58.3012 95.192C58.467 95.0987 58.606 94.9643 58.7047 94.8017C58.8035 94.6391 58.8587 94.4537 58.865 94.2636C58.8713 94.0735 58.8285 93.8849 58.7407 93.7161L56.7118 89.8133C56.4723 89.347 56.4144 88.8084 56.5494 88.3019C56.6844 87.7954 57.0027 87.3571 57.4425 87.0718C63.6608 82.9601 67.0853 77.3881 67.0853 71.3826C67.0853 65.5576 63.846 60.1224 57.9591 56.0463L57.3086 53.1109C56.2941 48.5338 56.2941 46.8046 57.3086 42.2275L57.7818 40.0918C58.3759 40.1816 58.9757 40.2271 59.5765 40.228C62.078 40.1971 64.5313 39.5358 66.7093 38.3051C70.0508 36.4568 72.5065 33.5736 73.4467 30.3948C73.4884 30.254 73.5016 30.1063 73.4856 29.9604C73.4696 29.8145 73.4248 29.6731 73.3537 29.5447ZM45.048 23.5236L44.5862 21.4396H55.6081L55.1463 23.5236C54.0671 28.3932 54.0671 30.4959 55.1463 35.3656L55.6081 37.4496H44.5861L45.0479 35.3656C46.127 30.4959 46.1271 28.3932 45.048 23.5236ZM45.048 41.7483L44.5862 39.6643H55.6081L55.1463 41.7483C54.0671 46.6178 54.0671 48.7207 55.1463 53.5901L55.6081 55.6741H44.5861L45.0479 53.5901C46.127 48.7207 46.1271 46.6178 45.048 41.7483ZM19.6075 41.7483L19.1457 39.6643H30.1675L29.7057 41.7483C28.6266 46.6178 28.6266 48.7207 29.7057 53.5901L30.1675 55.6741H19.1456L19.6074 53.5901C20.6865 48.7207 20.6866 46.6178 19.6075 41.7483ZM19.6075 23.5236L19.1457 21.4396H30.1675L29.7057 23.5236C28.6266 28.3932 28.6266 30.4959 29.7057 35.3656L30.1675 37.4496H19.1456L19.6074 35.3656C20.6865 30.4959 20.6866 28.3932 19.6075 23.5236ZM19.6075 5.29894L19.1457 3.21494H30.1675L29.7057 5.29894C28.6266 10.1684 28.6266 12.2713 29.7057 17.1407L30.1675 19.2247H19.1456L19.6074 17.1407C20.6865 12.2713 20.6866 10.1684 19.6075 5.29894ZM8.85505 17.8433C6.43295 16.5036 4.5681 14.5536 3.59111 12.3778C5.95292 12.0481 8.59614 12.5925 11.0184 13.9323C13.4405 15.2719 15.3053 17.2221 16.2823 19.398C13.9198 19.7269 11.277 19.1832 8.85505 17.8433ZM64.8705 71.3827C64.8705 76.6203 61.7986 81.5361 56.2209 85.2244C55.3237 85.8107 54.6762 86.7093 54.4038 87.7459C54.1314 88.7825 54.2536 89.8833 54.7466 90.835L55.9343 93.1195H19.0003L20.188 90.835C20.681 89.8834 20.8031 88.7825 20.5308 87.746C20.2584 86.7094 19.6109 85.8108 18.7137 85.2245C13.1359 81.5362 10.064 76.6204 10.064 71.3828C10.064 66.3177 12.9506 61.5366 18.2016 57.8891H56.7329C61.9839 61.5365 64.8705 66.3176 64.8705 71.3827ZM65.6372 36.3672C63.215 37.7069 60.5722 38.2512 58.21 37.9216C59.1868 35.7457 61.0517 33.7957 63.4739 32.4559C65.8961 31.116 68.5387 30.572 70.9012 30.9014C69.9243 33.0772 68.0594 35.0273 65.6372 36.3672Z" fill="#285A43"/>
<path d="M73.3537 29.5447C73.2827 29.4162 73.1868 29.3031 73.0717 29.2121C72.9565 29.121 72.8244 29.0538 72.683 29.0143C69.4906 28.1213 65.7431 28.6693 62.4017 30.5179C60.394 31.6099 58.6613 33.1449 57.3352 35.0063L57.3086 34.8863C56.2942 30.3092 56.2942 28.5799 57.3086 24.0028L58.0689 20.5718C58.1047 20.41 58.1038 20.2421 58.0662 20.0807C58.0285 19.9192 57.9551 19.7683 57.8513 19.639C57.7475 19.5097 57.6161 19.4054 57.4666 19.3337C57.3171 19.262 57.1535 19.2248 56.9877 19.2248H43.2064C43.0406 19.2248 42.877 19.262 42.7275 19.3337C42.578 19.4054 42.4465 19.5097 42.3428 19.639C42.239 19.7683 42.1656 19.9192 42.1279 20.0807C42.0902 20.2421 42.0893 20.41 42.1252 20.5718L42.8855 24.0028C43.8997 28.5799 43.8997 30.3092 42.8855 34.8863L42.1252 38.3174C42.1212 38.3353 42.1195 38.3534 42.1164 38.3715C42.1129 38.3921 42.1086 38.4126 42.1063 38.4334C42.1039 38.4542 42.1036 38.4747 42.1024 38.4953C42.1013 38.516 42.0994 38.5364 42.0994 38.557C42.0994 38.5777 42.1013 38.5982 42.1024 38.6188C42.1036 38.6393 42.104 38.66 42.1063 38.6807C42.1086 38.7013 42.1129 38.722 42.1164 38.7426C42.1195 38.7606 42.1213 38.7787 42.1252 38.7967L42.8855 42.2277C43.8999 46.8049 43.8999 48.534 42.8855 53.1111L42.3175 55.6743H32.4361L31.8681 53.1111C30.8535 48.534 30.8535 46.8049 31.8681 42.2277L32.6284 38.7967C32.6323 38.7788 32.6341 38.7607 32.6371 38.7426C32.6407 38.722 32.6449 38.7015 32.6473 38.6807C32.6496 38.6598 32.65 38.6394 32.6511 38.6188C32.6522 38.5981 32.6541 38.5777 32.6541 38.557C32.6541 38.5364 32.6523 38.5159 32.6511 38.4953C32.65 38.4747 32.6496 38.454 32.6473 38.4334C32.6449 38.4128 32.6407 38.3921 32.6371 38.3715C32.6341 38.3535 32.6322 38.3354 32.6284 38.3174L31.8681 34.8863C30.8537 30.3092 30.8537 28.5799 31.8681 24.0028L32.6284 20.5718C32.6323 20.5539 32.6341 20.5358 32.6371 20.5177C32.6407 20.497 32.6449 20.4766 32.6473 20.4558C32.6496 20.435 32.65 20.4145 32.6511 20.3939C32.6522 20.3732 32.6541 20.3528 32.6541 20.3321C32.6541 20.3115 32.6523 20.291 32.6511 20.2704C32.65 20.2498 32.6496 20.2292 32.6473 20.2085C32.6449 20.1879 32.6407 20.1672 32.6371 20.1466C32.6341 20.1286 32.6322 20.1105 32.6284 20.0924L31.8681 16.6615C30.8535 12.0843 30.8535 10.3552 31.8681 5.77803L32.6284 2.34702C32.6642 2.18516 32.6633 2.01732 32.6256 1.85587C32.588 1.69442 32.5146 1.54349 32.4108 1.41421C32.307 1.28492 32.1755 1.18059 32.026 1.1089C31.8766 1.03721 31.7129 0.999993 31.5471 1H17.7659C17.6001 0.999997 17.4364 1.03721 17.2869 1.1089C17.1375 1.18059 17.006 1.28493 16.9022 1.41421C16.7984 1.5435 16.725 1.69443 16.6874 1.85588C16.6497 2.01732 16.6488 2.18516 16.6847 2.34702L17.4449 5.77803C18.4593 10.3552 18.4593 12.0843 17.4449 16.6615L17.4025 16.8531C16.055 14.8241 14.2312 13.1559 12.0904 11.9942C8.74904 10.1456 5.0015 9.59775 1.80914 10.4907C1.66775 10.5302 1.53563 10.5974 1.42047 10.6885C1.30531 10.7796 1.2094 10.8926 1.13834 11.0211C1.06728 11.1496 1.02248 11.2909 1.00654 11.4368C0.990606 11.5828 1.00385 11.7305 1.04551 11.8712C1.98579 15.0502 4.44143 17.9332 7.7828 19.7815C9.96089 21.0123 12.4143 21.6736 14.9159 21.7043C15.5802 21.7031 16.2433 21.647 16.8984 21.5366L17.4449 24.0028C18.4592 28.5799 18.4592 30.3092 17.4449 34.8863L16.6846 38.3173C16.6806 38.3353 16.6789 38.3533 16.6758 38.3715C16.6723 38.3921 16.668 38.4125 16.6657 38.4334C16.6634 38.4542 16.663 38.4746 16.6618 38.4953C16.6607 38.5159 16.6588 38.5363 16.6588 38.557C16.6588 38.5777 16.6607 38.5981 16.6618 38.6187C16.663 38.6393 16.6634 38.66 16.6657 38.6806C16.668 38.7013 16.6723 38.7219 16.6758 38.7425C16.6789 38.7606 16.6807 38.7787 16.6846 38.7967L17.4449 42.2277C18.4593 46.8048 18.4593 48.5339 17.4449 53.1111L16.7616 56.1946C11.0095 60.2538 7.84912 65.6284 7.84912 71.3827C7.84912 77.3884 11.2738 82.9602 17.4921 87.0718C17.9318 87.3571 18.25 87.7955 18.3851 88.3019C18.5201 88.8084 18.4622 89.347 18.2228 89.8133L16.1937 93.7161C16.106 93.8849 16.0632 94.0735 16.0695 94.2636C16.0758 94.4537 16.131 94.6391 16.2297 94.8017C16.3284 94.9643 16.4674 95.0987 16.6332 95.192C16.799 95.2853 16.9861 95.3343 17.1763 95.3343H57.7581C57.9484 95.3343 58.1354 95.2853 58.3012 95.192C58.467 95.0987 58.606 94.9643 58.7047 94.8017C58.8035 94.6391 58.8587 94.4537 58.865 94.2636C58.8713 94.0735 58.8285 93.8849 58.7407 93.7161L56.7118 89.8133C56.4723 89.347 56.4144 88.8084 56.5494 88.3019C56.6844 87.7954 57.0027 87.3571 57.4425 87.0718C63.6608 82.9601 67.0853 77.3881 67.0853 71.3826C67.0853 65.5576 63.846 60.1224 57.9591 56.0463L57.3086 53.1109C56.2941 48.5338 56.2941 46.8046 57.3086 42.2275L57.7818 40.0918C58.3759 40.1816 58.9757 40.2271 59.5765 40.228C62.078 40.1971 64.5313 39.5358 66.7093 38.3051C70.0508 36.4568 72.5065 33.5736 73.4467 30.3948C73.4884 30.254 73.5016 30.1063 73.4856 29.9604C73.4696 29.8145 73.4248 29.6731 73.3537 29.5447ZM45.048 23.5236L44.5862 21.4396H55.6081L55.1463 23.5236C54.0671 28.3932 54.0671 30.4959 55.1463 35.3656L55.6081 37.4496H44.5861L45.0479 35.3656C46.127 30.4959 46.1271 28.3932 45.048 23.5236ZM45.048 41.7483L44.5862 39.6643H55.6081L55.1463 41.7483C54.0671 46.6178 54.0671 48.7207 55.1463 53.5901L55.6081 55.6741H44.5861L45.0479 53.5901C46.127 48.7207 46.1271 46.6178 45.048 41.7483ZM19.6075 41.7483L19.1457 39.6643H30.1675L29.7057 41.7483C28.6266 46.6178 28.6266 48.7207 29.7057 53.5901L30.1675 55.6741H19.1456L19.6074 53.5901C20.6865 48.7207 20.6866 46.6178 19.6075 41.7483ZM19.6075 23.5236L19.1457 21.4396H30.1675L29.7057 23.5236C28.6266 28.3932 28.6266 30.4959 29.7057 35.3656L30.1675 37.4496H19.1456L19.6074 35.3656C20.6865 30.4959 20.6866 28.3932 19.6075 23.5236ZM19.6075 5.29894L19.1457 3.21494H30.1675L29.7057 5.29894C28.6266 10.1684 28.6266 12.2713 29.7057 17.1407L30.1675 19.2247H19.1456L19.6074 17.1407C20.6865 12.2713 20.6866 10.1684 19.6075 5.29894ZM8.85505 17.8433C6.43295 16.5036 4.5681 14.5536 3.59111 12.3778C5.95292 12.0481 8.59614 12.5925 11.0184 13.9323C13.4405 15.2719 15.3053 17.2221 16.2823 19.398C13.9198 19.7269 11.277 19.1832 8.85505 17.8433ZM64.8705 71.3827C64.8705 76.6203 61.7986 81.5361 56.2209 85.2244C55.3237 85.8107 54.6762 86.7093 54.4038 87.7459C54.1314 88.7825 54.2536 89.8833 54.7466 90.835L55.9343 93.1195H19.0003L20.188 90.835C20.681 89.8834 20.8031 88.7825 20.5308 87.746C20.2584 86.7094 19.6109 85.8108 18.7137 85.2245C13.1359 81.5362 10.064 76.6204 10.064 71.3828C10.064 66.3177 12.9506 61.5366 18.2016 57.8891H56.7329C61.9839 61.5365 64.8705 66.3176 64.8705 71.3827ZM65.6372 36.3672C63.215 37.7069 60.5722 38.2512 58.21 37.9216C59.1868 35.7457 61.0517 33.7957 63.4739 32.4559C65.8961 31.116 68.5387 30.572 70.9012 30.9014C69.9243 33.0772 68.0594 35.0273 65.6372 36.3672Z" stroke="#285A43" stroke-width="2" mask="url(#path-1-outside-1_301_1621)"/>
<path d="M50.7069 86.1704H24.2278C23.8015 86.1704 23.3926 86.3398 23.0912 86.6412C22.7897 86.9427 22.6204 87.3515 22.6204 87.7778C22.6204 88.2041 22.7897 88.613 23.0912 88.9144C23.3926 89.2159 23.8015 89.3853 24.2278 89.3853H50.7069C51.1332 89.3853 51.5421 89.2159 51.8435 88.9144C52.145 88.613 52.3143 88.2041 52.3143 87.7778C52.3143 87.3515 52.145 86.9427 51.8435 86.6412C51.5421 86.3398 51.1332 86.1704 50.7069 86.1704Z" fill="#285A43" stroke="#285A43"/>
</svg>
