<svg width="76" height="82" viewBox="0 0 76 82" fill="none" xmlns="http://www.w3.org/2000/svg">
<path d="M29.5421 69.9766C33.4564 67.4665 37.9489 66.0083 42.5858 65.7386V58.5984C38.9164 58.4403 35.4337 56.9053 32.8385 54.2893C30.1268 51.5558 28.6032 47.8628 28.5986 44.0125L28.5986 44.0119L28.5986 43.0195C28.5986 42.5932 28.7679 42.1844 29.0694 41.8829C29.3708 41.5815 29.7797 41.4121 30.206 41.4121H31.1983H31.1988C34.0706 41.4151 36.878 42.2635 39.2707 43.8516C41.3604 45.2386 43.0531 47.1362 44.1932 49.3567C45.3333 47.1362 47.026 45.2386 49.1157 43.8516C51.5084 42.2636 54.3158 41.4151 57.1876 41.4121L57.1881 41.4121L58.1804 41.4121C58.6068 41.4121 59.0156 41.5815 59.3171 41.8829C59.6185 42.1844 59.7879 42.5932 59.7879 43.0195V44.0119V44.0125C59.7832 47.8628 58.2596 51.5559 55.5479 54.2893C52.9527 56.9053 49.47 58.4403 45.8006 58.5984M29.5421 69.9766C29.5428 69.9762 29.5434 69.9758 29.5441 69.9753L29.81 70.3988L29.54 69.9779C29.5407 69.9775 29.5414 69.977 29.5421 69.9766ZM29.5421 69.9766C29.363 70.0894 29.2079 70.2365 29.0858 70.4094C28.9632 70.583 28.8763 70.7791 28.83 70.9865C28.7837 71.1939 28.779 71.4084 28.8161 71.6176C28.8532 71.8268 28.9315 72.0266 29.0463 72.2053C29.1611 72.3841 29.3102 72.5384 29.4851 72.6592C29.6599 72.7799 29.8569 72.8649 30.0648 72.909C30.2726 72.9532 30.4871 72.9557 30.6959 72.9164C30.9037 72.8773 31.1016 72.7977 31.2785 72.682M31.2785 72.682C35.134 70.2146 39.6157 68.9033 44.1932 68.9033C48.7708 68.9033 53.2524 70.2146 57.108 72.682M31.2785 72.682C31.2778 72.6825 31.2771 72.6829 31.2764 72.6834L31.0068 72.2623M31.2785 72.682C31.2795 72.6814 31.2804 72.6808 31.2813 72.6802L31.0068 72.2623M57.108 72.682C57.2849 72.7977 57.4828 72.8773 57.6906 72.9164C57.8994 72.9557 58.1139 72.9532 58.3218 72.909C58.5296 72.8649 58.7266 72.7799 58.9014 72.6592C59.0763 72.5384 59.2254 72.3841 59.3402 72.2053C59.455 72.0266 59.5333 71.8268 59.5704 71.6176L59.0781 71.5302M57.108 72.682C57.107 72.6814 57.1061 72.6808 57.1052 72.6802L57.3797 72.2623M57.108 72.682C57.1087 72.6825 57.1094 72.6829 57.1101 72.6834L57.3797 72.2623M59.0781 71.5302L59.5704 71.6176C59.6075 71.4083 59.6028 71.1939 59.5565 70.9865C59.5102 70.7791 59.4233 70.583 59.3007 70.4094C59.1786 70.2366 59.0237 70.0896 58.8447 69.9768M59.0781 71.5302C59.1037 71.3861 59.1004 71.2383 59.0685 71.0954C59.0366 70.9525 58.9767 70.8174 58.8923 70.6978C58.8078 70.5783 58.7005 70.4766 58.5765 70.3988M59.0781 71.5302C59.0525 71.6743 58.9986 71.812 58.9195 71.9351C58.8404 72.0583 58.7376 72.1646 58.6172 72.2478C58.4968 72.331 58.361 72.3895 58.2178 72.4199C58.0747 72.4504 57.9268 72.4521 57.783 72.425C57.6391 72.398 57.502 72.3427 57.3797 72.2623M58.8447 69.9768C54.9302 67.4666 50.4376 66.0083 45.8006 65.7386M58.8447 69.9768C58.8453 69.9772 58.8459 69.9775 58.8465 69.9779L58.5765 70.3988M58.8447 69.9768C58.8439 69.9763 58.8432 69.9758 58.8424 69.9753L58.5765 70.3988M45.8006 65.7386V58.5984M45.8006 65.7386V66.2146H45.3006M45.8006 65.7386C45.6408 65.7294 45.4809 65.7215 45.3208 65.715L45.3006 66.2146M45.8006 58.5984C45.6358 58.6055 45.4707 58.6098 45.3052 58.6114L45.3006 58.1114M45.8006 58.5984V58.1114H45.3006M45.3006 58.1114V66.2146M45.3006 58.1114C49.0191 58.0772 52.574 56.5772 55.1929 53.9372C57.8119 51.2972 59.2834 47.7305 59.2879 44.0119V43.0195C59.2879 42.7258 59.1712 42.4441 58.9635 42.2365C58.7558 42.0288 58.4741 41.9121 58.1804 41.9121H57.1881L45.3006 66.2146M45.3006 66.2146C50.0191 66.4051 54.6016 67.8493 58.5765 70.3988M45.3006 66.2146L58.5765 70.3988M58.5765 70.3988L29.318 71.0954C29.2861 71.2383 29.2828 71.3861 29.3084 71.5302C29.334 71.6743 29.3879 71.812 29.467 71.9351C29.5461 72.0583 29.6489 72.1646 29.7693 72.2478C29.8897 72.331 30.0255 72.3895 30.1687 72.4199C30.3119 72.4504 30.4597 72.4521 30.6035 72.425C30.7474 72.398 30.8845 72.3427 31.0068 72.2623M57.3797 72.2623C53.4432 69.7424 48.8672 68.4033 44.1932 68.4033C39.5193 68.4033 34.9433 69.7424 31.0068 72.2623M39.2468 47.9661C41.2311 49.9503 42.4094 52.5918 42.5677 55.3814C39.7782 55.2231 37.1366 54.0448 35.1524 52.0606C33.1681 50.0763 31.9898 47.4348 31.8315 44.6453C34.621 44.8035 37.2626 45.9819 39.2468 47.9661ZM49.1396 47.9661C51.1238 45.9819 53.7654 44.8035 56.5549 44.6453C56.3967 47.4348 55.2183 50.0763 53.2341 52.0606C51.2498 54.0448 48.6083 55.2231 45.8188 55.3814C45.977 52.5919 47.1554 49.9503 49.1396 47.9661Z" fill="#285A43" stroke="#285A43"/>
<path d="M43.2339 10.9649L43.5323 11.3661L43.2339 10.965L18.1956 29.5883V6.94776C18.1956 5.28128 17.5336 3.68306 16.3552 2.50468C15.1769 1.32631 13.5786 0.664307 11.9122 0.664307C10.2457 0.664307 8.64746 1.32631 7.46909 2.50468C6.29071 3.68306 5.62871 5.28128 5.62871 6.94776V41.2193C4.02769 42.278 2.72231 43.7292 1.83831 45.4364C0.911517 47.2262 0.48184 49.2319 0.594086 51.2443L0.594094 51.2445C0.753114 54.0793 1.96602 56.7523 3.99469 58.7388C6.02337 60.7252 8.7213 61.8816 11.5588 61.981L11.5616 61.9811C11.6797 61.9846 11.7976 61.9865 11.9161 61.9865C12.2665 61.9865 12.6166 61.9704 12.9653 61.9385V79.7279C12.9653 80.1542 13.1346 80.5631 13.4361 80.8646C13.7375 81.166 14.1464 81.3354 14.5727 81.3354H73.8136C74.2399 81.3354 74.6488 81.166 74.9502 80.8646C75.2517 80.5631 75.421 80.1542 75.421 79.7279V34.2863C75.421 34.0356 75.3624 33.7885 75.2499 33.5645C75.1374 33.3406 74.974 33.146 74.7729 32.9965L45.1525 10.965L44.8541 11.3661L45.1525 10.9649C44.8752 10.7587 44.5388 10.6473 44.1932 10.6473C43.8476 10.6473 43.5112 10.7587 43.2339 10.9649ZM8.00976 43.5334L8.01025 43.5331C8.26255 43.3944 8.473 43.1906 8.61959 42.9428C8.76617 42.695 8.84352 42.4123 8.84355 42.1244V6.94773C8.84355 6.13389 9.16685 5.35337 9.74232 4.7779C10.3178 4.20242 11.0983 3.87913 11.9122 3.87913C12.726 3.87913 13.5065 4.20242 14.082 4.7779C14.6575 5.35337 14.9808 6.13389 14.9808 6.94773V42.1244C14.9808 42.4123 15.0581 42.695 15.2047 42.9428C15.3513 43.1906 15.5618 43.3944 15.8141 43.5331L15.8146 43.5334C17.4143 44.4103 18.672 45.8004 19.3851 47.4796C20.0981 49.1588 20.2248 51.0292 19.7447 52.7892C19.2646 54.5492 18.2058 56.0962 16.739 57.1809C15.2721 58.2655 13.4827 58.8245 11.6593 58.7677C9.8792 58.7122 8.16673 58.0729 6.78574 56.9483C5.40474 55.8237 4.43184 54.2762 4.01693 52.5442C3.60202 50.8122 3.76811 48.9919 4.48963 47.3636C5.21114 45.7353 6.44804 44.3895 8.00976 43.5334ZM72.2062 78.1206H16.1802V61.1561C18.0261 60.4053 19.6435 59.1802 20.8672 57.6023C22.1624 55.9321 22.965 53.9332 23.1842 51.831C23.4035 49.7289 23.0308 47.6073 22.1081 45.7058C21.226 43.8876 19.8746 42.3399 18.1957 41.221V33.595L44.1933 14.2581L72.2063 35.094L72.2062 78.1206Z" fill="#285A43" stroke="#285A43"/>
<path d="M10.5298 52.8051C10.9388 53.0785 11.4197 53.2244 11.9116 53.2246L10.5298 52.8051ZM10.5298 52.8051C10.1206 52.5317 9.80167 52.1431 9.61335 51.6884M10.5298 52.8051L9.61335 51.6884M9.61335 51.6884C9.42503 51.2337 9.37577 50.7334 9.47179 50.2507M9.61335 51.6884L9.47179 50.2507M9.47179 50.2507C9.56782 49.768 9.80482 49.3246 10.1528 48.9767M9.47179 50.2507L10.1528 48.9767M10.1528 48.9767C10.5008 48.6287 10.9442 48.3917 11.4269 48.2957M10.1528 48.9767L11.4269 48.2957M11.4269 48.2957C11.9096 48.1997 12.4099 48.249 12.8646 48.4373M11.4269 48.2957L12.8646 48.4373M12.8646 48.4373C13.3193 48.6257 13.7079 48.9446 13.9813 49.3538M12.8646 48.4373L13.9813 49.3538M13.9813 49.3538C14.2547 49.763 14.4006 50.244 14.4006 50.7361M13.9813 49.3538L14.4006 50.7361M14.4006 50.7361C14.3998 51.3958 14.1373 52.0283 13.6708 52.4948C13.2042 52.9614 12.5716 53.2238 11.9117 53.2246L14.4006 50.7361ZM7.28549 47.4037L7.69111 47.696L7.28549 47.4037C6.46283 48.545 6.09105 49.9501 6.24164 51.349C6.39222 52.7478 7.05453 54.0416 8.10126 54.9817C9.14799 55.9218 10.5053 56.4419 11.9122 56.4419C13.3191 56.4419 14.6764 55.9218 15.7231 54.9817C16.7698 54.0416 17.4321 52.7478 17.5827 51.349C17.7333 49.9501 17.3615 48.545 16.5389 47.4037C15.7956 46.3725 14.7318 45.6225 13.5196 45.2664V9.44897C13.5196 9.02266 13.3503 8.61381 13.0488 8.31235C12.7474 8.0109 12.3385 7.84155 11.9122 7.84155C11.4859 7.84155 11.077 8.0109 10.7756 8.31235L11.1243 8.66105L10.7756 8.31236C10.4741 8.6138 10.3048 9.02266 10.3048 9.44897V45.2664C9.09257 45.6225 8.02872 46.3725 7.28549 47.4037Z" fill="#285A43" stroke="#285A43"/>
<path d="M41.8182 37.3862H41.8183L42.3025 28.8667H42.8025C42.8025 28.8658 42.8025 28.865 42.8025 28.8641C42.8019 28.4387 42.6326 28.0309 42.3317 27.7301C42.0303 27.4286 41.6214 27.2593 41.1951 27.2593C40.7688 27.2593 40.36 27.4286 40.0585 27.7301C39.7571 28.0315 39.5877 28.4404 39.5877 28.8667H39.5875L39.5879 28.879C39.5918 29.0409 39.5331 29.1981 39.4238 29.3177L39.4085 29.3345L39.3947 29.3527C38.8813 30.0296 38.6034 30.8559 38.6033 31.7055C38.6033 32.5551 38.8811 33.3815 39.3944 34.0585L39.4044 34.0717L39.4153 34.0842C39.5265 34.2122 39.5877 34.3761 39.5877 34.5457C39.5877 34.7153 39.5265 34.8792 39.4153 35.0073L39.4061 35.0179L39.3975 35.029C38.8749 35.7039 38.5951 36.5353 38.6033 37.3888C38.604 37.8142 38.7733 38.222 39.0741 38.5229C39.3756 38.8243 39.7844 38.9937 40.2107 38.9937C40.6371 38.9937 41.0459 38.8243 41.3474 38.5229C41.6488 38.2214 41.8182 37.8126 41.8182 37.3862Z" fill="#285A43" stroke="#285A43"/>
<path d="M48.7987 37.3862H48.7989L49.2831 28.8667H49.7831C49.7831 28.8658 49.7831 28.865 49.7831 28.8641C49.7824 28.4388 49.6131 28.0309 49.3123 27.7301C49.0108 27.4286 48.602 27.2593 48.1757 27.2593C47.7493 27.2593 47.3405 27.4286 47.039 27.7301C46.7376 28.0315 46.5682 28.4404 46.5682 28.8667H46.5681L46.5684 28.879C46.5724 29.0409 46.5136 29.1981 46.4044 29.3177L46.389 29.3345L46.3752 29.3527C45.8618 30.0297 45.5839 30.8559 45.5839 31.7055C45.5838 32.5551 45.8616 33.3814 46.3749 34.0584L46.3849 34.0717L46.3958 34.0842C46.507 34.2122 46.5682 34.3761 46.5682 34.5457C46.5682 34.7153 46.507 34.8792 46.3958 35.0072L46.3866 35.0179L46.378 35.029C45.8554 35.7039 45.5756 36.5353 45.5839 37.3888C45.5845 37.8142 45.7538 38.222 46.0547 38.5229C46.3561 38.8243 46.765 38.9937 47.1913 38.9937C47.6176 38.9937 48.0265 38.8243 48.3279 38.5229C48.6294 38.2214 48.7987 37.8126 48.7987 37.3862Z" fill="#285A43" stroke="#285A43"/>
</svg>
