<svg width="80" height="84" viewBox="0 0 80 84" fill="none" xmlns="http://www.w3.org/2000/svg">
<path d="M77.3008 1.16333C59.55 1.16333 44.7518 14.037 41.7489 30.9379C39.8172 26.9586 36.867 23.5479 33.185 21.0603C29.0256 18.2501 24.1218 16.7458 19.1021 16.7403H19.1015C18.6752 16.7403 18.2664 16.9096 17.9649 17.2111C17.6635 17.5126 17.4941 17.9214 17.4941 18.3477V18.3483C17.5019 24.8491 20.0222 31.0953 24.528 35.7813C28.9227 40.3517 34.8745 43.0929 41.1922 43.4689V54.7028C39.6757 54.7615 38.1634 54.9017 36.662 55.1228C34.4354 50.9446 30.7056 47.7604 26.2194 46.2197C21.6188 44.6397 16.584 44.912 12.1807 46.9791C7.77741 49.0461 4.35133 52.7455 2.62773 57.2942C0.904133 61.8429 1.01831 66.8838 2.94609 71.3498C4.87388 75.8157 8.46394 79.3563 12.9563 81.2218C17.4486 83.0873 22.4907 83.1314 27.0149 81.3447C31.5392 79.5581 35.1907 76.0809 37.1963 71.6493C39.117 67.4055 39.3839 62.6053 37.9594 58.1856C39.5494 57.9862 41.1504 57.8846 42.7532 57.8814C42.7567 57.8817 42.7605 57.882 42.7644 57.8822C42.7748 57.8829 42.7866 57.8834 42.7996 57.8834C42.8178 57.8834 42.8337 57.8825 42.8464 57.8814C50.3137 57.8836 57.6239 60.0273 63.9101 64.0585C64.087 64.1742 64.285 64.2539 64.4927 64.2929C64.7015 64.3322 64.9161 64.3297 65.1239 64.2856C65.3318 64.2414 65.5288 64.1565 65.7036 64.0357C65.8784 63.9149 66.0276 63.7606 66.1424 63.5819C66.2572 63.4031 66.3354 63.2033 66.3726 62.9941C66.4097 62.7849 66.405 62.5704 66.3587 62.363C66.3124 62.1556 66.2254 61.9595 66.1028 61.7859C65.9808 61.6131 65.8258 61.4661 65.6468 61.3533C59.2866 57.2752 51.9514 54.9797 44.407 54.7019V38.8421C63.5747 37.998 78.9082 22.1429 78.9082 2.77075C78.9082 2.34444 78.7388 1.93558 78.4374 1.63413L78.4374 1.63413C78.1359 1.33268 77.7271 1.16333 77.3008 1.16333ZM42.7133 57.8765L42.7156 57.8769C42.7137 57.8766 42.7121 57.8763 42.7133 57.8765ZM61.5398 20.6412L61.0799 20.4449L61.5398 20.6412C61.6234 20.4453 61.6673 20.2347 61.6688 20.0217C61.6704 19.8086 61.6295 19.5974 61.5487 19.4003C61.4679 19.2032 61.3487 19.0241 61.1981 18.8734C61.0474 18.7228 60.8684 18.6036 60.6712 18.5228C60.4741 18.442 60.2629 18.4011 60.0499 18.4027C59.8368 18.4042 59.6262 18.4481 59.4303 18.5317C59.2355 18.6149 59.0591 18.7357 58.9112 18.8872C58.9103 18.8881 58.9095 18.889 58.9086 18.8899L44.6665 33.1318C46.6405 17.4755 59.6626 5.2111 75.6526 4.41895C74.8604 20.409 62.5958 33.4313 46.9393 35.4051L61.1816 21.1629C61.1825 21.162 61.1834 21.1611 61.1844 21.1602C61.3359 21.0123 61.4566 20.8359 61.5398 20.6412ZM34.6163 26.3919C38.3275 30.1031 40.5841 35.0148 40.9892 40.2352C35.7688 39.8301 30.8571 37.5736 27.1459 33.8624C23.4346 30.1513 21.1781 25.2396 20.773 20.0192C25.9934 20.4242 30.9051 22.6807 34.6163 26.3919ZM19.9764 79.6218C16.8774 79.6217 13.8479 78.7027 11.2711 76.9809C8.69414 75.2591 6.68563 72.8118 5.49957 69.9484C4.31352 67.0851 4.00318 63.9343 4.6078 60.8946C5.21242 57.8548 6.70486 55.0627 8.89637 52.8711C11.0879 50.6796 13.88 49.1872 16.9198 48.5825C19.9595 47.9779 23.1102 48.2882 25.9736 49.4742C28.837 50.6602 31.2843 52.6687 33.0062 55.2457C34.728 57.8224 35.647 60.8519 35.6471 63.951C35.6424 68.1057 33.9899 72.0888 31.0521 75.0267C28.1143 77.9645 24.1311 79.6171 19.9764 79.6218Z" fill="#285A43" stroke="#285A43"/>
<path d="M27.9552 63.6345H21.5845V56.0769C21.5845 55.6506 21.4151 55.2417 21.1137 54.9403C20.8122 54.6388 20.4034 54.4695 19.9771 54.4695C19.5507 54.4695 19.1419 54.6388 18.8404 54.9403C18.539 55.2417 18.3696 55.6506 18.3696 56.0769V65.242C18.3696 65.6683 18.539 66.0771 18.8404 66.3786C19.1419 66.68 19.5507 66.8494 19.9771 66.8494H27.9552C28.3815 66.8494 28.7903 66.68 29.0918 66.3786C29.3932 66.0771 29.5626 65.6683 29.5626 65.242C29.5626 64.8156 29.3932 64.4068 29.0918 64.1053C28.7903 63.8039 28.3815 63.6345 27.9552 63.6345Z" fill="#285A43" stroke="#285A43"/>
</svg>
